<svg xmlns="http://www.w3.org/2000/svg" xmlns:xlink="http://www.w3.org/1999/xlink" width="783" zoomAndPan="magnify" viewBox="0 0 587.25 167.249994" height="223" preserveAspectRatio="xMidYMid meet" version="1.0"><defs><g/><clipPath id="6e96f7d65f"><path d="M 1 19.035156 L 133 19.035156 L 133 86 L 1 86 Z M 1 19.035156 " clip-rule="nonzero"/></clipPath><clipPath id="b220c2ab40"><path d="M 132.191406 85.011719 C 132.222656 76.460938 130.5625 67.988281 127.296875 60.078125 C 124.03125 52.167969 119.230469 44.976562 113.167969 38.917969 C 107.105469 32.859375 99.898438 28.054688 91.964844 24.773438 C 84.03125 21.496094 75.523438 19.808594 66.933594 19.808594 C 58.34375 19.8125 49.835938 21.503906 41.90625 24.785156 C 33.972656 28.070312 26.769531 32.878906 20.710938 38.941406 C 14.648438 45 9.851562 52.195312 6.589844 60.105469 C 3.332031 68.019531 1.671875 76.492188 1.710938 85.042969 L 66.949219 84.746094 Z M 132.191406 85.011719 " clip-rule="nonzero"/></clipPath><linearGradient x1="354.131793" gradientTransform="matrix(0.1864, 0, 0, 0.186383, 0.93751, 19.037704)" y1="1.981821" x2="356.309439" gradientUnits="userSpaceOnUse" y2="356.285001" id="441634e628"><stop stop-opacity="1" stop-color="rgb(76.469421%, 19.999695%, 28.62854%)" offset="0"/><stop stop-opacity="1" stop-color="rgb(76.470947%, 20.079041%, 28.619385%)" offset="0.0078125"/><stop stop-opacity="1" stop-color="rgb(76.48468%, 20.51239%, 28.570557%)" offset="0.0117188"/><stop stop-opacity="1" stop-color="rgb(76.496887%, 20.866394%, 28.530884%)" offset="0.015625"/><stop stop-opacity="1" stop-color="rgb(76.507568%, 21.218872%, 28.491211%)" offset="0.0195312"/><stop stop-opacity="1" stop-color="rgb(76.519775%, 21.572876%, 28.451538%)" offset="0.0234375"/><stop stop-opacity="1" stop-color="rgb(76.530457%, 21.92688%, 28.411865%)" offset="0.0273437"/><stop stop-opacity="1" stop-color="rgb(76.542664%, 22.280884%, 28.372192%)" offset="0.03125"/><stop stop-opacity="1" stop-color="rgb(76.553345%, 22.634888%, 28.330994%)" offset="0.0351563"/><stop stop-opacity="1" stop-color="rgb(76.565552%, 22.988892%, 28.291321%)" offset="0.0390625"/><stop stop-opacity="1" stop-color="rgb(76.576233%, 23.342896%, 28.251648%)" offset="0.0429688"/><stop stop-opacity="1" stop-color="rgb(76.58844%, 23.696899%, 28.211975%)" offset="0.046875"/><stop stop-opacity="1" stop-color="rgb(76.599121%, 24.050903%, 28.172302%)" offset="0.0507813"/><stop stop-opacity="1" stop-color="rgb(76.611328%, 24.404907%, 28.132629%)" offset="0.0546875"/><stop stop-opacity="1" stop-color="rgb(76.622009%, 24.757385%, 28.091431%)" offset="0.0585938"/><stop stop-opacity="1" stop-color="rgb(76.634216%, 25.111389%, 28.051758%)" offset="0.0625"/><stop stop-opacity="1" stop-color="rgb(76.644897%, 25.465393%, 28.012085%)" offset="0.0664062"/><stop stop-opacity="1" stop-color="rgb(76.657104%, 25.819397%, 27.972412%)" offset="0.0703125"/><stop stop-opacity="1" stop-color="rgb(76.667786%, 26.173401%, 27.931213%)" offset="0.0742188"/><stop stop-opacity="1" stop-color="rgb(76.679993%, 26.527405%, 27.891541%)" offset="0.078125"/><stop stop-opacity="1" stop-color="rgb(76.690674%, 26.881409%, 27.851868%)" offset="0.0820312"/><stop stop-opacity="1" stop-color="rgb(76.702881%, 27.235413%, 27.812195%)" offset="0.0859375"/><stop stop-opacity="1" stop-color="rgb(76.713562%, 27.589417%, 27.772522%)" offset="0.0898438"/><stop stop-opacity="1" stop-color="rgb(76.725769%, 27.94342%, 27.732849%)" offset="0.09375"/><stop stop-opacity="1" stop-color="rgb(76.73645%, 28.295898%, 27.69165%)" offset="0.0976562"/><stop stop-opacity="1" stop-color="rgb(76.748657%, 28.649902%, 27.651978%)" offset="0.101562"/><stop stop-opacity="1" stop-color="rgb(76.759338%, 29.003906%, 27.612305%)" offset="0.105469"/><stop stop-opacity="1" stop-color="rgb(76.771545%, 29.35791%, 27.572632%)" offset="0.109375"/><stop stop-opacity="1" stop-color="rgb(76.782227%, 29.711914%, 27.532959%)" offset="0.113281"/><stop stop-opacity="1" stop-color="rgb(76.794434%, 30.065918%, 27.493286%)" offset="0.117188"/><stop stop-opacity="1" stop-color="rgb(76.805115%, 30.419922%, 27.452087%)" offset="0.121094"/><stop stop-opacity="1" stop-color="rgb(76.817322%, 30.773926%, 27.412415%)" offset="0.125"/><stop stop-opacity="1" stop-color="rgb(76.828003%, 31.12793%, 27.372742%)" offset="0.128906"/><stop stop-opacity="1" stop-color="rgb(76.84021%, 31.481934%, 27.333069%)" offset="0.132812"/><stop stop-opacity="1" stop-color="rgb(76.850891%, 31.835938%, 27.293396%)" offset="0.136719"/><stop stop-opacity="1" stop-color="rgb(76.863098%, 32.189941%, 27.253723%)" offset="0.140625"/><stop stop-opacity="1" stop-color="rgb(76.873779%, 32.542419%, 27.212524%)" offset="0.144531"/><stop stop-opacity="1" stop-color="rgb(76.885986%, 32.896423%, 27.172852%)" offset="0.148438"/><stop stop-opacity="1" stop-color="rgb(76.896667%, 33.250427%, 27.133179%)" offset="0.152344"/><stop stop-opacity="1" stop-color="rgb(76.908875%, 33.604431%, 27.093506%)" offset="0.15625"/><stop stop-opacity="1" stop-color="rgb(76.919556%, 33.958435%, 27.052307%)" offset="0.160156"/><stop stop-opacity="1" stop-color="rgb(76.931763%, 34.312439%, 27.012634%)" offset="0.164062"/><stop stop-opacity="1" stop-color="rgb(76.942444%, 34.666443%, 26.972961%)" offset="0.167969"/><stop stop-opacity="1" stop-color="rgb(76.954651%, 35.020447%, 26.933289%)" offset="0.171875"/><stop stop-opacity="1" stop-color="rgb(76.965332%, 35.374451%, 26.893616%)" offset="0.175781"/><stop stop-opacity="1" stop-color="rgb(76.977539%, 35.728455%, 26.853943%)" offset="0.179688"/><stop stop-opacity="1" stop-color="rgb(76.98822%, 36.080933%, 26.812744%)" offset="0.183594"/><stop stop-opacity="1" stop-color="rgb(77.000427%, 36.434937%, 26.773071%)" offset="0.1875"/><stop stop-opacity="1" stop-color="rgb(77.011108%, 36.78894%, 26.733398%)" offset="0.191406"/><stop stop-opacity="1" stop-color="rgb(77.023315%, 37.142944%, 26.693726%)" offset="0.195312"/><stop stop-opacity="1" stop-color="rgb(77.033997%, 37.496948%, 26.654053%)" offset="0.199219"/><stop stop-opacity="1" stop-color="rgb(77.046204%, 37.850952%, 26.61438%)" offset="0.203125"/><stop stop-opacity="1" stop-color="rgb(77.056885%, 38.204956%, 26.573181%)" offset="0.207031"/><stop stop-opacity="1" stop-color="rgb(77.069092%, 38.55896%, 26.533508%)" offset="0.210937"/><stop stop-opacity="1" stop-color="rgb(77.079773%, 38.912964%, 26.493835%)" offset="0.214844"/><stop stop-opacity="1" stop-color="rgb(77.09198%, 39.266968%, 26.454163%)" offset="0.21875"/><stop stop-opacity="1" stop-color="rgb(77.102661%, 39.620972%, 26.41449%)" offset="0.222656"/><stop stop-opacity="1" stop-color="rgb(77.114868%, 39.974976%, 26.374817%)" offset="0.226562"/><stop stop-opacity="1" stop-color="rgb(77.125549%, 40.327454%, 26.333618%)" offset="0.230469"/><stop stop-opacity="1" stop-color="rgb(77.13623%, 40.681458%, 26.293945%)" offset="0.234375"/><stop stop-opacity="1" stop-color="rgb(77.146912%, 41.035461%, 26.254272%)" offset="0.238281"/><stop stop-opacity="1" stop-color="rgb(77.159119%, 41.389465%, 26.2146%)" offset="0.242188"/><stop stop-opacity="1" stop-color="rgb(77.1698%, 41.743469%, 26.174927%)" offset="0.246094"/><stop stop-opacity="1" stop-color="rgb(77.182007%, 42.097473%, 26.135254%)" offset="0.25"/><stop stop-opacity="1" stop-color="rgb(77.192688%, 42.451477%, 26.094055%)" offset="0.253906"/><stop stop-opacity="1" stop-color="rgb(77.204895%, 42.805481%, 26.054382%)" offset="0.257812"/><stop stop-opacity="1" stop-color="rgb(77.215576%, 43.159485%, 26.014709%)" offset="0.261719"/><stop stop-opacity="1" stop-color="rgb(77.227783%, 43.513489%, 25.975037%)" offset="0.265625"/><stop stop-opacity="1" stop-color="rgb(77.238464%, 43.865967%, 25.933838%)" offset="0.269531"/><stop stop-opacity="1" stop-color="rgb(77.250671%, 44.219971%, 25.894165%)" offset="0.273438"/><stop stop-opacity="1" stop-color="rgb(77.261353%, 44.573975%, 25.854492%)" offset="0.277344"/><stop stop-opacity="1" stop-color="rgb(77.27356%, 44.927979%, 25.814819%)" offset="0.28125"/><stop stop-opacity="1" stop-color="rgb(77.284241%, 45.281982%, 25.775146%)" offset="0.285156"/><stop stop-opacity="1" stop-color="rgb(77.296448%, 45.635986%, 25.735474%)" offset="0.289062"/><stop stop-opacity="1" stop-color="rgb(77.307129%, 45.98999%, 25.694275%)" offset="0.292969"/><stop stop-opacity="1" stop-color="rgb(77.319336%, 46.343994%, 25.654602%)" offset="0.296875"/><stop stop-opacity="1" stop-color="rgb(77.330017%, 46.697998%, 25.614929%)" offset="0.300781"/><stop stop-opacity="1" stop-color="rgb(77.342224%, 47.052002%, 25.575256%)" offset="0.304688"/><stop stop-opacity="1" stop-color="rgb(77.352905%, 47.40448%, 25.535583%)" offset="0.308594"/><stop stop-opacity="1" stop-color="rgb(77.365112%, 47.758484%, 25.495911%)" offset="0.3125"/><stop stop-opacity="1" stop-color="rgb(77.375793%, 48.112488%, 25.454712%)" offset="0.316406"/><stop stop-opacity="1" stop-color="rgb(77.388%, 48.466492%, 25.415039%)" offset="0.320312"/><stop stop-opacity="1" stop-color="rgb(77.398682%, 48.820496%, 25.375366%)" offset="0.324219"/><stop stop-opacity="1" stop-color="rgb(77.410889%, 49.1745%, 25.335693%)" offset="0.328125"/><stop stop-opacity="1" stop-color="rgb(77.42157%, 49.528503%, 25.296021%)" offset="0.332031"/><stop stop-opacity="1" stop-color="rgb(77.433777%, 49.882507%, 25.256348%)" offset="0.335938"/><stop stop-opacity="1" stop-color="rgb(77.444458%, 50.236511%, 25.215149%)" offset="0.339844"/><stop stop-opacity="1" stop-color="rgb(77.456665%, 50.590515%, 25.175476%)" offset="0.34375"/><stop stop-opacity="1" stop-color="rgb(77.467346%, 50.944519%, 25.135803%)" offset="0.347656"/><stop stop-opacity="1" stop-color="rgb(77.479553%, 51.298523%, 25.09613%)" offset="0.351562"/><stop stop-opacity="1" stop-color="rgb(77.490234%, 51.651001%, 25.054932%)" offset="0.355469"/><stop stop-opacity="1" stop-color="rgb(77.502441%, 52.005005%, 25.015259%)" offset="0.359375"/><stop stop-opacity="1" stop-color="rgb(77.513123%, 52.359009%, 24.975586%)" offset="0.363281"/><stop stop-opacity="1" stop-color="rgb(77.52533%, 52.713013%, 24.935913%)" offset="0.367188"/><stop stop-opacity="1" stop-color="rgb(77.536011%, 53.067017%, 24.89624%)" offset="0.371094"/><stop stop-opacity="1" stop-color="rgb(77.548218%, 53.421021%, 24.856567%)" offset="0.375"/><stop stop-opacity="1" stop-color="rgb(77.558899%, 53.775024%, 24.815369%)" offset="0.378906"/><stop stop-opacity="1" stop-color="rgb(77.571106%, 54.129028%, 24.775696%)" offset="0.382812"/><stop stop-opacity="1" stop-color="rgb(77.581787%, 54.483032%, 24.736023%)" offset="0.386719"/><stop stop-opacity="1" stop-color="rgb(77.593994%, 54.837036%, 24.69635%)" offset="0.390625"/><stop stop-opacity="1" stop-color="rgb(77.604675%, 55.189514%, 24.656677%)" offset="0.394531"/><stop stop-opacity="1" stop-color="rgb(77.616882%, 55.543518%, 24.617004%)" offset="0.398438"/><stop stop-opacity="1" stop-color="rgb(77.627563%, 55.897522%, 24.575806%)" offset="0.402344"/><stop stop-opacity="1" stop-color="rgb(77.639771%, 56.251526%, 24.536133%)" offset="0.40625"/><stop stop-opacity="1" stop-color="rgb(77.650452%, 56.60553%, 24.49646%)" offset="0.410156"/><stop stop-opacity="1" stop-color="rgb(77.662659%, 56.959534%, 24.456787%)" offset="0.414063"/><stop stop-opacity="1" stop-color="rgb(77.67334%, 57.313538%, 24.417114%)" offset="0.417969"/><stop stop-opacity="1" stop-color="rgb(77.685547%, 57.667542%, 24.377441%)" offset="0.421875"/><stop stop-opacity="1" stop-color="rgb(77.696228%, 58.021545%, 24.336243%)" offset="0.425781"/><stop stop-opacity="1" stop-color="rgb(77.708435%, 58.375549%, 24.29657%)" offset="0.429688"/><stop stop-opacity="1" stop-color="rgb(77.719116%, 58.728027%, 24.256897%)" offset="0.433594"/><stop stop-opacity="1" stop-color="rgb(77.731323%, 59.082031%, 24.217224%)" offset="0.4375"/><stop stop-opacity="1" stop-color="rgb(77.742004%, 59.436035%, 24.176025%)" offset="0.441406"/><stop stop-opacity="1" stop-color="rgb(77.754211%, 59.790039%, 24.136353%)" offset="0.445313"/><stop stop-opacity="1" stop-color="rgb(77.764893%, 60.144043%, 24.09668%)" offset="0.449219"/><stop stop-opacity="1" stop-color="rgb(77.7771%, 60.498047%, 24.057007%)" offset="0.453125"/><stop stop-opacity="1" stop-color="rgb(77.787781%, 60.852051%, 24.017334%)" offset="0.457031"/><stop stop-opacity="1" stop-color="rgb(77.799988%, 61.206055%, 23.977661%)" offset="0.460938"/><stop stop-opacity="1" stop-color="rgb(77.810669%, 61.560059%, 23.936462%)" offset="0.464844"/><stop stop-opacity="1" stop-color="rgb(77.822876%, 61.914062%, 23.89679%)" offset="0.46875"/><stop stop-opacity="1" stop-color="rgb(77.833557%, 62.268066%, 23.857117%)" offset="0.472656"/><stop stop-opacity="1" stop-color="rgb(77.845764%, 62.62207%, 23.817444%)" offset="0.476563"/><stop stop-opacity="1" stop-color="rgb(77.856445%, 62.974548%, 23.777771%)" offset="0.480469"/><stop stop-opacity="1" stop-color="rgb(77.868652%, 63.328552%, 23.738098%)" offset="0.484375"/><stop stop-opacity="1" stop-color="rgb(77.879333%, 63.682556%, 23.696899%)" offset="0.488281"/><stop stop-opacity="1" stop-color="rgb(77.891541%, 64.03656%, 23.657227%)" offset="0.492188"/><stop stop-opacity="1" stop-color="rgb(77.902222%, 64.390564%, 23.617554%)" offset="0.496094"/><stop stop-opacity="1" stop-color="rgb(77.914429%, 64.744568%, 23.577881%)" offset="0.5"/><stop stop-opacity="1" stop-color="rgb(77.92511%, 65.098572%, 23.538208%)" offset="0.503906"/><stop stop-opacity="1" stop-color="rgb(77.937317%, 65.452576%, 23.498535%)" offset="0.507813"/><stop stop-opacity="1" stop-color="rgb(77.947998%, 65.80658%, 23.457336%)" offset="0.511719"/><stop stop-opacity="1" stop-color="rgb(77.960205%, 66.160583%, 23.417664%)" offset="0.515625"/><stop stop-opacity="1" stop-color="rgb(77.970886%, 66.513062%, 23.377991%)" offset="0.519531"/><stop stop-opacity="1" stop-color="rgb(77.983093%, 66.867065%, 23.338318%)" offset="0.523438"/><stop stop-opacity="1" stop-color="rgb(77.993774%, 67.221069%, 23.297119%)" offset="0.527344"/><stop stop-opacity="1" stop-color="rgb(78.004456%, 67.575073%, 23.257446%)" offset="0.53125"/><stop stop-opacity="1" stop-color="rgb(78.015137%, 67.929077%, 23.217773%)" offset="0.535156"/><stop stop-opacity="1" stop-color="rgb(78.027344%, 68.283081%, 23.178101%)" offset="0.539062"/><stop stop-opacity="1" stop-color="rgb(78.033447%, 68.455505%, 23.158264%)" offset="0.546875"/><stop stop-opacity="1" stop-color="rgb(78.039551%, 68.629456%, 23.139954%)" offset="0.5625"/><stop stop-opacity="1" stop-color="rgb(78.039551%, 68.629456%, 23.139954%)" offset="0.625"/><stop stop-opacity="1" stop-color="rgb(78.039551%, 68.629456%, 23.139954%)" offset="0.75"/><stop stop-opacity="1" stop-color="rgb(78.039551%, 68.629456%, 23.139954%)" offset="0.987851"/><stop stop-opacity="1" stop-color="rgb(78.039551%, 68.629456%, 23.139954%)" offset="1"/></linearGradient><clipPath id="dceadb32c7"><path d="M 0.9375 19.035156 L 133.09375 19.035156 L 133.09375 94 L 0.9375 94 Z M 0.9375 19.035156 " clip-rule="nonzero"/></clipPath><clipPath id="e559884bce"><path d="M 1 84 L 133 84 L 133 148 L 1 148 Z M 1 84 " clip-rule="nonzero"/></clipPath><clipPath id="d98d926ddc"><path d="M 132.066406 84.824219 L 1.886719 84.671875 C 1.46875 88.1875 1.769531 89.992188 3.039062 92.625 C 4.308594 94.386719 6.007812 95.480469 8.125 95.917969 C 8.125 95.917969 19.414062 94.480469 27.773438 95.734375 C 30.324219 96.117188 28.492188 101.179688 27.773438 103.347656 C 27.441406 104.347656 23.867188 104.417969 22.109375 104.484375 C 19.914062 104.574219 7.359375 104.707031 5.785156 106.183594 C 4.953125 106.96875 7.980469 115.828125 11.296875 118.167969 C 15.304688 120.992188 38.445312 117.121094 41.574219 118.085938 C 42.320312 118.320312 43.632812 119.34375 44.453125 120.203125 C 45.210938 120.996094 45.953125 121.894531 46.265625 122.9375 C 46.519531 123.78125 46.386719 124.703125 46.265625 125.578125 C 46.179688 126.226562 46.226562 127.027344 45.742188 127.472656 C 40.125 132.53125 18.625 126.210938 23.25 131.484375 C 27.648438 136.492188 36.019531 142.292969 42.878906 144.164062 C 57.734375 148.214844 74.347656 148.46875 89.121094 144.152344 C 95.078125 142.410156 104.085938 136.785156 110.292969 131.554688 C 116.019531 126.730469 96.488281 130.652344 90.734375 127.324219 C 90.054688 126.921875 89.394531 126.308594 89.164062 125.566406 C 88.898438 124.722656 89.246094 123.785156 89.496094 122.9375 C 89.769531 122.007812 90.078125 121.003906 90.765625 120.300781 C 91.429688 119.621094 92.375 119.214844 93.308594 118.984375 C 96.1875 118.285156 102.203125 118.984375 102.203125 118.984375 C 102.203125 118.984375 115.773438 122.859375 121.191406 119.648438 C 125.351562 117.175781 125.382812 111.351562 127.527344 106.734375 C 128.828125 103.921875 111.105469 106.464844 111.105469 106.464844 C 111.105469 106.464844 107.035156 106.742188 105.386719 105.804688 C 104.445312 105.265625 104.703125 96.910156 106.035156 96.492188 C 108.664062 95.664062 130.445312 97.488281 131.875 92.136719 C 132.445312 90.007812 132.066406 84.824219 132.066406 84.824219 Z M 132.066406 84.824219 " clip-rule="nonzero"/></clipPath><linearGradient x1="349.607949" gradientTransform="matrix(0.1864, 0, 0, 0.186383, 0.93751, 19.037704)" y1="341.235103" x2="361.01786" gradientUnits="userSpaceOnUse" y2="703.858948" id="baf9ba4aa2"><stop stop-opacity="1" stop-color="rgb(10.978699%, 65.489197%, 92.549133%)" offset="0"/><stop stop-opacity="1" stop-color="rgb(10.978699%, 65.489197%, 92.549133%)" offset="0.03125"/><stop stop-opacity="1" stop-color="rgb(10.978699%, 65.489197%, 92.549133%)" offset="0.0390625"/><stop stop-opacity="1" stop-color="rgb(11.445618%, 65.664673%, 92.579651%)" offset="0.0429687"/><stop stop-opacity="1" stop-color="rgb(11.914062%, 65.841675%, 92.611694%)" offset="0.046875"/><stop stop-opacity="1" stop-color="rgb(12.478638%, 66.053772%, 92.649841%)" offset="0.0507812"/><stop stop-opacity="1" stop-color="rgb(13.043213%, 66.265869%, 92.687988%)" offset="0.0546875"/><stop stop-opacity="1" stop-color="rgb(13.607788%, 66.477966%, 92.726135%)" offset="0.0585937"/><stop stop-opacity="1" stop-color="rgb(14.172363%, 66.691589%, 92.764282%)" offset="0.0625"/><stop stop-opacity="1" stop-color="rgb(14.736938%, 66.903687%, 92.802429%)" offset="0.0664062"/><stop stop-opacity="1" stop-color="rgb(15.301514%, 67.11731%, 92.840576%)" offset="0.0703125"/><stop stop-opacity="1" stop-color="rgb(15.866089%, 67.329407%, 92.877197%)" offset="0.0742187"/><stop stop-opacity="1" stop-color="rgb(16.430664%, 67.54303%, 92.915344%)" offset="0.078125"/><stop stop-opacity="1" stop-color="rgb(16.995239%, 67.755127%, 92.953491%)" offset="0.0820312"/><stop stop-opacity="1" stop-color="rgb(17.559814%, 67.967224%, 92.991638%)" offset="0.0859375"/><stop stop-opacity="1" stop-color="rgb(18.12439%, 68.179321%, 93.029785%)" offset="0.0898437"/><stop stop-opacity="1" stop-color="rgb(18.688965%, 68.392944%, 93.067932%)" offset="0.09375"/><stop stop-opacity="1" stop-color="rgb(19.25354%, 68.605042%, 93.106079%)" offset="0.0976562"/><stop stop-opacity="1" stop-color="rgb(19.818115%, 68.818665%, 93.144226%)" offset="0.101562"/><stop stop-opacity="1" stop-color="rgb(20.38269%, 69.030762%, 93.180847%)" offset="0.105469"/><stop stop-opacity="1" stop-color="rgb(20.947266%, 69.244385%, 93.218994%)" offset="0.109375"/><stop stop-opacity="1" stop-color="rgb(21.511841%, 69.456482%, 93.257141%)" offset="0.113281"/><stop stop-opacity="1" stop-color="rgb(22.076416%, 69.668579%, 93.295288%)" offset="0.117187"/><stop stop-opacity="1" stop-color="rgb(22.640991%, 69.880676%, 93.333435%)" offset="0.121094"/><stop stop-opacity="1" stop-color="rgb(23.205566%, 70.094299%, 93.371582%)" offset="0.125"/><stop stop-opacity="1" stop-color="rgb(23.770142%, 70.306396%, 93.409729%)" offset="0.128906"/><stop stop-opacity="1" stop-color="rgb(24.334717%, 70.52002%, 93.447876%)" offset="0.132812"/><stop stop-opacity="1" stop-color="rgb(24.897766%, 70.732117%, 93.484497%)" offset="0.136719"/><stop stop-opacity="1" stop-color="rgb(25.462341%, 70.944214%, 93.522644%)" offset="0.140625"/><stop stop-opacity="1" stop-color="rgb(26.026917%, 71.156311%, 93.560791%)" offset="0.144531"/><stop stop-opacity="1" stop-color="rgb(26.591492%, 71.369934%, 93.598938%)" offset="0.148437"/><stop stop-opacity="1" stop-color="rgb(27.156067%, 71.582031%, 93.637085%)" offset="0.152344"/><stop stop-opacity="1" stop-color="rgb(27.720642%, 71.795654%, 93.675232%)" offset="0.15625"/><stop stop-opacity="1" stop-color="rgb(28.285217%, 72.007751%, 93.713379%)" offset="0.160156"/><stop stop-opacity="1" stop-color="rgb(28.849792%, 72.221375%, 93.751526%)" offset="0.164062"/><stop stop-opacity="1" stop-color="rgb(29.414368%, 72.433472%, 93.788147%)" offset="0.167969"/><stop stop-opacity="1" stop-color="rgb(29.978943%, 72.645569%, 93.826294%)" offset="0.171875"/><stop stop-opacity="1" stop-color="rgb(30.543518%, 72.857666%, 93.864441%)" offset="0.175781"/><stop stop-opacity="1" stop-color="rgb(31.108093%, 73.071289%, 93.902588%)" offset="0.179687"/><stop stop-opacity="1" stop-color="rgb(31.672668%, 73.283386%, 93.940735%)" offset="0.183594"/><stop stop-opacity="1" stop-color="rgb(32.237244%, 73.497009%, 93.978882%)" offset="0.1875"/><stop stop-opacity="1" stop-color="rgb(32.801819%, 73.709106%, 94.017029%)" offset="0.191406"/><stop stop-opacity="1" stop-color="rgb(33.366394%, 73.922729%, 94.055176%)" offset="0.195312"/><stop stop-opacity="1" stop-color="rgb(33.930969%, 74.134827%, 94.091797%)" offset="0.199219"/><stop stop-opacity="1" stop-color="rgb(34.495544%, 74.346924%, 94.129944%)" offset="0.203125"/><stop stop-opacity="1" stop-color="rgb(35.06012%, 74.559021%, 94.168091%)" offset="0.207031"/><stop stop-opacity="1" stop-color="rgb(35.624695%, 74.772644%, 94.206238%)" offset="0.210937"/><stop stop-opacity="1" stop-color="rgb(36.18927%, 74.984741%, 94.244385%)" offset="0.214844"/><stop stop-opacity="1" stop-color="rgb(36.753845%, 75.198364%, 94.282532%)" offset="0.21875"/><stop stop-opacity="1" stop-color="rgb(37.31842%, 75.410461%, 94.320679%)" offset="0.222656"/><stop stop-opacity="1" stop-color="rgb(37.882996%, 75.622559%, 94.358826%)" offset="0.226562"/><stop stop-opacity="1" stop-color="rgb(38.447571%, 75.834656%, 94.395447%)" offset="0.230469"/><stop stop-opacity="1" stop-color="rgb(39.012146%, 76.048279%, 94.433594%)" offset="0.234375"/><stop stop-opacity="1" stop-color="rgb(39.576721%, 76.260376%, 94.471741%)" offset="0.238281"/><stop stop-opacity="1" stop-color="rgb(40.141296%, 76.473999%, 94.509888%)" offset="0.242187"/><stop stop-opacity="1" stop-color="rgb(40.705872%, 76.686096%, 94.548035%)" offset="0.246094"/><stop stop-opacity="1" stop-color="rgb(41.270447%, 76.899719%, 94.586182%)" offset="0.25"/><stop stop-opacity="1" stop-color="rgb(41.835022%, 77.111816%, 94.624329%)" offset="0.253906"/><stop stop-opacity="1" stop-color="rgb(42.399597%, 77.323914%, 94.662476%)" offset="0.257812"/><stop stop-opacity="1" stop-color="rgb(42.964172%, 77.536011%, 94.699097%)" offset="0.261719"/><stop stop-opacity="1" stop-color="rgb(43.528748%, 77.749634%, 94.737244%)" offset="0.265625"/><stop stop-opacity="1" stop-color="rgb(44.093323%, 77.961731%, 94.775391%)" offset="0.269531"/><stop stop-opacity="1" stop-color="rgb(44.657898%, 78.175354%, 94.813538%)" offset="0.273437"/><stop stop-opacity="1" stop-color="rgb(45.222473%, 78.387451%, 94.851685%)" offset="0.277344"/><stop stop-opacity="1" stop-color="rgb(45.787048%, 78.599548%, 94.889832%)" offset="0.28125"/><stop stop-opacity="1" stop-color="rgb(46.351624%, 78.811646%, 94.927979%)" offset="0.285156"/><stop stop-opacity="1" stop-color="rgb(46.916199%, 79.025269%, 94.966125%)" offset="0.289062"/><stop stop-opacity="1" stop-color="rgb(47.480774%, 79.237366%, 95.002747%)" offset="0.292969"/><stop stop-opacity="1" stop-color="rgb(48.045349%, 79.450989%, 95.040894%)" offset="0.296875"/><stop stop-opacity="1" stop-color="rgb(48.609924%, 79.663086%, 95.079041%)" offset="0.300781"/><stop stop-opacity="1" stop-color="rgb(49.1745%, 79.876709%, 95.117188%)" offset="0.304687"/><stop stop-opacity="1" stop-color="rgb(49.739075%, 80.088806%, 95.155334%)" offset="0.308594"/><stop stop-opacity="1" stop-color="rgb(50.30365%, 80.300903%, 95.193481%)" offset="0.3125"/><stop stop-opacity="1" stop-color="rgb(50.868225%, 80.513%, 95.231628%)" offset="0.316406"/><stop stop-opacity="1" stop-color="rgb(51.4328%, 80.726624%, 95.269775%)" offset="0.320312"/><stop stop-opacity="1" stop-color="rgb(51.997375%, 80.938721%, 95.306396%)" offset="0.324219"/><stop stop-opacity="1" stop-color="rgb(52.561951%, 81.152344%, 95.344543%)" offset="0.328125"/><stop stop-opacity="1" stop-color="rgb(53.126526%, 81.364441%, 95.38269%)" offset="0.332031"/><stop stop-opacity="1" stop-color="rgb(53.691101%, 81.578064%, 95.420837%)" offset="0.335938"/><stop stop-opacity="1" stop-color="rgb(54.255676%, 81.790161%, 95.458984%)" offset="0.339844"/><stop stop-opacity="1" stop-color="rgb(54.820251%, 82.002258%, 95.497131%)" offset="0.34375"/><stop stop-opacity="1" stop-color="rgb(55.384827%, 82.214355%, 95.535278%)" offset="0.347656"/><stop stop-opacity="1" stop-color="rgb(55.949402%, 82.427979%, 95.573425%)" offset="0.351562"/><stop stop-opacity="1" stop-color="rgb(56.513977%, 82.640076%, 95.610046%)" offset="0.355469"/><stop stop-opacity="1" stop-color="rgb(57.078552%, 82.853699%, 95.648193%)" offset="0.359375"/><stop stop-opacity="1" stop-color="rgb(57.641602%, 83.065796%, 95.68634%)" offset="0.363281"/><stop stop-opacity="1" stop-color="rgb(58.206177%, 83.277893%, 95.724487%)" offset="0.367188"/><stop stop-opacity="1" stop-color="rgb(58.770752%, 83.48999%, 95.762634%)" offset="0.371094"/><stop stop-opacity="1" stop-color="rgb(59.335327%, 83.703613%, 95.800781%)" offset="0.375"/><stop stop-opacity="1" stop-color="rgb(59.899902%, 83.91571%, 95.838928%)" offset="0.378906"/><stop stop-opacity="1" stop-color="rgb(60.464478%, 84.129333%, 95.877075%)" offset="0.382812"/><stop stop-opacity="1" stop-color="rgb(61.029053%, 84.341431%, 95.913696%)" offset="0.386719"/><stop stop-opacity="1" stop-color="rgb(61.593628%, 84.555054%, 95.951843%)" offset="0.390625"/><stop stop-opacity="1" stop-color="rgb(62.158203%, 84.767151%, 95.98999%)" offset="0.394531"/><stop stop-opacity="1" stop-color="rgb(62.722778%, 84.979248%, 96.028137%)" offset="0.398438"/><stop stop-opacity="1" stop-color="rgb(63.287354%, 85.191345%, 96.066284%)" offset="0.402344"/><stop stop-opacity="1" stop-color="rgb(63.851929%, 85.404968%, 96.104431%)" offset="0.40625"/><stop stop-opacity="1" stop-color="rgb(64.416504%, 85.617065%, 96.142578%)" offset="0.410156"/><stop stop-opacity="1" stop-color="rgb(64.981079%, 85.830688%, 96.180725%)" offset="0.414062"/><stop stop-opacity="1" stop-color="rgb(65.545654%, 86.042786%, 96.217346%)" offset="0.417969"/><stop stop-opacity="1" stop-color="rgb(66.110229%, 86.256409%, 96.255493%)" offset="0.421875"/><stop stop-opacity="1" stop-color="rgb(66.674805%, 86.468506%, 96.29364%)" offset="0.425781"/><stop stop-opacity="1" stop-color="rgb(67.23938%, 86.680603%, 96.331787%)" offset="0.429687"/><stop stop-opacity="1" stop-color="rgb(67.803955%, 86.8927%, 96.369934%)" offset="0.433594"/><stop stop-opacity="1" stop-color="rgb(68.36853%, 87.106323%, 96.408081%)" offset="0.4375"/><stop stop-opacity="1" stop-color="rgb(68.933105%, 87.31842%, 96.446228%)" offset="0.441406"/><stop stop-opacity="1" stop-color="rgb(69.497681%, 87.532043%, 96.484375%)" offset="0.445313"/><stop stop-opacity="1" stop-color="rgb(70.062256%, 87.744141%, 96.520996%)" offset="0.449219"/><stop stop-opacity="1" stop-color="rgb(70.626831%, 87.956238%, 96.559143%)" offset="0.453125"/><stop stop-opacity="1" stop-color="rgb(71.191406%, 88.168335%, 96.59729%)" offset="0.457031"/><stop stop-opacity="1" stop-color="rgb(71.755981%, 88.381958%, 96.635437%)" offset="0.460938"/><stop stop-opacity="1" stop-color="rgb(72.320557%, 88.594055%, 96.673584%)" offset="0.464844"/><stop stop-opacity="1" stop-color="rgb(72.885132%, 88.807678%, 96.711731%)" offset="0.46875"/><stop stop-opacity="1" stop-color="rgb(73.449707%, 89.019775%, 96.749878%)" offset="0.472656"/><stop stop-opacity="1" stop-color="rgb(74.014282%, 89.233398%, 96.788025%)" offset="0.476562"/><stop stop-opacity="1" stop-color="rgb(74.578857%, 89.445496%, 96.824646%)" offset="0.480469"/><stop stop-opacity="1" stop-color="rgb(75.143433%, 89.657593%, 96.862793%)" offset="0.484375"/><stop stop-opacity="1" stop-color="rgb(75.708008%, 89.86969%, 96.90094%)" offset="0.488281"/><stop stop-opacity="1" stop-color="rgb(76.272583%, 90.083313%, 96.939087%)" offset="0.492188"/><stop stop-opacity="1" stop-color="rgb(76.837158%, 90.29541%, 96.977234%)" offset="0.496094"/><stop stop-opacity="1" stop-color="rgb(77.401733%, 90.509033%, 97.015381%)" offset="0.5"/><stop stop-opacity="1" stop-color="rgb(77.966309%, 90.72113%, 97.053528%)" offset="0.503906"/><stop stop-opacity="1" stop-color="rgb(78.530884%, 90.934753%, 97.091675%)" offset="0.507812"/><stop stop-opacity="1" stop-color="rgb(79.095459%, 91.146851%, 97.129822%)" offset="0.511719"/><stop stop-opacity="1" stop-color="rgb(79.660034%, 91.358948%, 97.167969%)" offset="0.515625"/><stop stop-opacity="1" stop-color="rgb(80.224609%, 91.571045%, 97.20459%)" offset="0.519531"/><stop stop-opacity="1" stop-color="rgb(80.789185%, 91.784668%, 97.242737%)" offset="0.523438"/><stop stop-opacity="1" stop-color="rgb(81.35376%, 91.996765%, 97.280884%)" offset="0.527344"/><stop stop-opacity="1" stop-color="rgb(81.918335%, 92.210388%, 97.319031%)" offset="0.53125"/><stop stop-opacity="1" stop-color="rgb(82.48291%, 92.422485%, 97.357178%)" offset="0.535156"/><stop stop-opacity="1" stop-color="rgb(83.047485%, 92.634583%, 97.395325%)" offset="0.539062"/><stop stop-opacity="1" stop-color="rgb(83.612061%, 92.84668%, 97.433472%)" offset="0.542969"/><stop stop-opacity="1" stop-color="rgb(84.176636%, 93.060303%, 97.471619%)" offset="0.546875"/><stop stop-opacity="1" stop-color="rgb(84.741211%, 93.2724%, 97.50824%)" offset="0.550781"/><stop stop-opacity="1" stop-color="rgb(85.305786%, 93.486023%, 97.546387%)" offset="0.554688"/><stop stop-opacity="1" stop-color="rgb(85.870361%, 93.69812%, 97.584534%)" offset="0.558594"/><stop stop-opacity="1" stop-color="rgb(86.434937%, 93.911743%, 97.622681%)" offset="0.5625"/><stop stop-opacity="1" stop-color="rgb(86.999512%, 94.12384%, 97.660828%)" offset="0.566406"/><stop stop-opacity="1" stop-color="rgb(87.564087%, 94.335938%, 97.698975%)" offset="0.570312"/><stop stop-opacity="1" stop-color="rgb(88.128662%, 94.548035%, 97.737122%)" offset="0.574219"/><stop stop-opacity="1" stop-color="rgb(88.693237%, 94.761658%, 97.775269%)" offset="0.578125"/><stop stop-opacity="1" stop-color="rgb(89.257812%, 94.973755%, 97.81189%)" offset="0.582031"/><stop stop-opacity="1" stop-color="rgb(89.822388%, 95.187378%, 97.850037%)" offset="0.585938"/><stop stop-opacity="1" stop-color="rgb(90.386963%, 95.399475%, 97.888184%)" offset="0.589844"/><stop stop-opacity="1" stop-color="rgb(90.951538%, 95.611572%, 97.926331%)" offset="0.59375"/><stop stop-opacity="1" stop-color="rgb(91.514587%, 95.823669%, 97.964478%)" offset="0.597656"/><stop stop-opacity="1" stop-color="rgb(92.079163%, 96.037292%, 98.002625%)" offset="0.601562"/><stop stop-opacity="1" stop-color="rgb(92.643738%, 96.24939%, 98.040771%)" offset="0.605469"/><stop stop-opacity="1" stop-color="rgb(93.208313%, 96.463013%, 98.078918%)" offset="0.609375"/><stop stop-opacity="1" stop-color="rgb(93.772888%, 96.67511%, 98.11554%)" offset="0.613281"/><stop stop-opacity="1" stop-color="rgb(94.337463%, 96.888733%, 98.153687%)" offset="0.617188"/><stop stop-opacity="1" stop-color="rgb(94.902039%, 97.10083%, 98.191833%)" offset="0.621094"/><stop stop-opacity="1" stop-color="rgb(95.466614%, 97.312927%, 98.22998%)" offset="0.625"/><stop stop-opacity="1" stop-color="rgb(96.031189%, 97.525024%, 98.268127%)" offset="0.628906"/><stop stop-opacity="1" stop-color="rgb(96.595764%, 97.738647%, 98.306274%)" offset="0.632812"/><stop stop-opacity="1" stop-color="rgb(97.160339%, 97.950745%, 98.344421%)" offset="0.636719"/><stop stop-opacity="1" stop-color="rgb(97.724915%, 98.164368%, 98.382568%)" offset="0.640625"/><stop stop-opacity="1" stop-color="rgb(98.077393%, 98.297119%, 98.405457%)" offset="0.644531"/><stop stop-opacity="1" stop-color="rgb(98.429871%, 98.429871%, 98.429871%)" offset="0.648438"/><stop stop-opacity="1" stop-color="rgb(98.429871%, 98.429871%, 98.429871%)" offset="0.65625"/><stop stop-opacity="1" stop-color="rgb(98.429871%, 98.429871%, 98.429871%)" offset="0.6875"/><stop stop-opacity="1" stop-color="rgb(98.429871%, 98.429871%, 98.429871%)" offset="0.75"/><stop stop-opacity="1" stop-color="rgb(98.429871%, 98.429871%, 98.429871%)" offset="0.939089"/><stop stop-opacity="1" stop-color="rgb(98.429871%, 98.429871%, 98.429871%)" offset="1"/></linearGradient><clipPath id="1e2f2d3b16"><path d="M 0.9375 75 L 133.09375 75 L 133.09375 148.203125 L 0.9375 148.203125 Z M 0.9375 75 " clip-rule="nonzero"/></clipPath><clipPath id="aac84fccc6"><rect x="0" width="344" y="0" height="53"/></clipPath><clipPath id="7562e4c811"><rect x="0" width="394" y="0" height="81"/></clipPath></defs><g clip-path="url(#6e96f7d65f)"><g clip-path="url(#b220c2ab40)"><path fill="url(#441634e628)" d="M 1.671875 19.808594 L 1.671875 85.042969 L 132.222656 85.042969 L 132.222656 19.808594 Z M 1.671875 19.808594 " fill-rule="nonzero"/></g></g><g clip-path="url(#dceadb32c7)"><path stroke-linecap="butt" transform="matrix(0.1864, 0, 0, 0.186383, 0.93751, 19.037701)" fill="none" stroke-linejoin="miter" d="M 704.153108 353.969752 C 704.320758 308.092329 695.414324 262.634069 677.894844 220.193785 C 660.375364 177.7535 634.620052 139.169518 602.09585 106.663405 C 569.571648 74.157291 530.907246 48.378748 488.344968 30.773889 C 445.782691 13.189988 400.139836 4.136061 354.056897 4.136061 C 307.973959 4.157019 262.331104 13.231905 219.789783 30.836763 C 177.227506 48.46258 138.584059 74.262081 106.080814 106.789153 C 73.556612 139.295267 47.822256 177.900207 30.323732 220.340492 C 12.846165 262.801734 3.939731 308.259994 4.149294 354.137417 L 354.140723 352.544597 Z M 704.153108 353.969752 " stroke="#000000" stroke-width="8.291" stroke-opacity="1" stroke-miterlimit="4"/></g><path stroke-linecap="butt" transform="matrix(0.1864, 0, 0, 0.186383, 0.93751, 19.037701)" fill-opacity="1" fill="#1ca7ec" fill-rule="nonzero" stroke-linejoin="miter" d="M 290.161091 189.888278 C 307.219532 198.439209 347.078444 219.732705 350.012329 227.382435 C 352.401349 221.828521 377.234583 202.379344 406.447687 188.861328 C 445.154002 170.963055 503.559254 192.026011 524.68322 196.867347 C 538.221 199.969155 550.794789 177.18763 562.50937 183.34933 C 565.46421 184.900235 560.057481 219.10396 529.272653 264.604136 C 520.973952 276.885621 469.484284 295.789886 444.294793 284.682058 C 444.294793 284.682058 420.76085 279.652099 404.331099 284.933556 C 404.331099 284.933556 385.931454 290.885675 374.719825 309.915689 C 367.594677 321.987592 371.702115 350.050575 371.702115 350.050575 C 371.702115 350.050575 339.156957 350.343989 330.376261 350.050575 C 330.376261 350.050575 334.399873 322.679212 328.385411 310.502518 C 321.721302 296.942585 310.593499 288.475486 295.96599 284.933556 C 282.889249 280.532342 269.309557 280.32276 258.894268 284.451519 C 231.818708 295.203057 183.053361 278.080236 172.302771 267.265823 C 148.643091 243.562139 137.221899 190.475107 140.449172 183.34933 C 146.002595 176.642718 156.983705 199.822448 171.757907 196.343393 C 189.675557 192.15176 241.395744 165.409141 290.161091 189.888278 Z M 290.161091 189.888278 " stroke="#000000" stroke-width="8.291" stroke-opacity="1" stroke-miterlimit="4"/><g clip-path="url(#e559884bce)"><g clip-path="url(#d98d926ddc)"><path fill="url(#baf9ba4aa2)" d="M 1.46875 84.671875 L 1.46875 148.203125 L 132.445312 148.203125 L 132.445312 84.671875 Z M 1.46875 84.671875 " fill-rule="nonzero"/></g></g><g clip-path="url(#1e2f2d3b16)"><path stroke-linecap="butt" transform="matrix(0.1864, 0, 0, 0.186383, 0.93751, 19.037701)" fill="none" stroke-linejoin="miter" d="M 703.482505 352.96376 L 5.092328 352.146392 C 2.850003 371.00874 4.463639 380.691412 11.274442 394.817216 C 18.085244 404.269348 27.201241 410.137634 38.559565 412.484949 C 38.559565 412.484949 99.123317 404.772344 143.969833 411.499915 C 157.654307 413.553815 147.825795 440.715597 143.969833 452.347379 C 142.188546 457.712669 123.013517 458.089916 113.583175 458.446205 C 101.805725 458.928243 34.452127 459.64082 26.006731 467.563007 C 21.543036 471.775598 37.784181 519.308716 55.576093 531.862657 C 77.077273 547.01541 201.222487 526.245869 218.008496 531.422535 C 222.011152 532.680025 229.052474 538.171065 233.453301 542.781861 C 237.518826 547.036368 241.500526 551.856746 243.177031 557.452576 C 244.539192 561.97954 243.826677 566.925667 243.177031 571.620296 C 242.715992 575.099351 242.967468 579.395775 240.368885 581.785006 C 210.233703 608.92583 94.890141 575.015519 119.702419 603.309042 C 143.29923 630.177409 188.208615 661.300284 225.007905 671.339245 C 304.704774 693.072862 393.831985 694.435143 473.088771 671.276371 C 505.047152 661.929029 553.372416 631.749271 586.672002 603.686289 C 617.393961 577.802955 512.612382 598.844952 481.743729 580.988596 C 478.09733 578.829905 474.555713 575.539473 473.31929 571.557421 C 471.894261 567.030458 473.759373 562.000498 475.100577 557.452576 C 476.567519 552.464533 478.223068 547.078285 481.91138 543.305815 C 485.473953 539.659094 490.545382 537.479445 495.553941 536.242913 C 510.998746 532.491402 543.271472 536.242913 543.271472 536.242913 C 543.271472 536.242913 616.073713 557.033413 645.140123 539.805801 C 667.458599 526.539283 667.626249 495.290659 679.131267 470.518108 C 686.10972 455.428229 591.030915 469.071994 591.030915 469.071994 C 591.030915 469.071994 569.194434 470.560024 560.350869 465.530065 C 555.300397 462.637838 556.683514 417.808323 563.829618 415.565799 C 577.933218 411.122668 694.785634 420.910131 702.455646 392.197445 C 705.515268 380.775245 703.482505 352.96376 703.482505 352.96376 Z M 703.482505 352.96376 " stroke="#000000" stroke-width="8.291" stroke-opacity="1" stroke-miterlimit="4"/></g><g transform="matrix(1, 0, 0, 1, 163, 96)"><g clip-path="url(#aac84fccc6)"><g fill="#1ca7ec" fill-opacity="1"><g transform="translate(0.790302, 43.253577)"><g><path d="M 30.03125 -31.46875 L 30.03125 0 L 24.15625 0 L 24.15625 -13.75 L 9.375 -13.75 L 9.375 0 L 3.5 0 L 3.5 -31.46875 L 9.375 -31.46875 L 9.375 -17.9375 L 24.15625 -17.9375 L 24.15625 -31.46875 Z M 30.03125 -31.46875 "/></g></g></g><g fill="#1ca7ec" fill-opacity="1"><g transform="translate(36.155512, 43.253577)"><g><path d="M 20.140625 -11.890625 L 16.296875 -22.359375 C 16.109375 -22.816406 15.910156 -23.363281 15.703125 -24 C 15.503906 -24.644531 15.304688 -25.335938 15.109375 -26.078125 C 14.921875 -25.335938 14.722656 -24.644531 14.515625 -24 C 14.316406 -23.351562 14.125 -22.789062 13.9375 -22.3125 L 10.125 -11.890625 Z M 30.46875 0 L 25.9375 0 C 25.4375 0 25.023438 -0.125 24.703125 -0.375 C 24.378906 -0.632812 24.140625 -0.953125 23.984375 -1.328125 L 21.640625 -7.75 L 8.59375 -7.75 L 6.25 -1.328125 C 6.132812 -0.992188 5.910156 -0.6875 5.578125 -0.40625 C 5.242188 -0.132812 4.828125 0 4.328125 0 L -0.234375 0 L 12.140625 -31.46875 L 18.109375 -31.46875 Z M 10.296875 -38.953125 C 10.765625 -39.304688 11.421875 -39.59375 12.265625 -39.8125 C 13.117188 -40.039062 14.015625 -40.15625 14.953125 -40.15625 C 16.453125 -40.15625 17.59375 -39.878906 18.375 -39.328125 C 19.164062 -38.773438 19.5625 -38.066406 19.5625 -37.203125 C 19.5625 -36.804688 19.484375 -36.457031 19.328125 -36.15625 C 19.179688 -35.851562 18.976562 -35.582031 18.71875 -35.34375 C 18.457031 -35.101562 18.148438 -34.898438 17.796875 -34.734375 C 17.441406 -34.566406 17.0625 -34.421875 16.65625 -34.296875 L 16.28125 -33.171875 L 13.71875 -33.171875 L 13.71875 -35.59375 C 14.46875 -35.6875 15 -35.832031 15.3125 -36.03125 C 15.632812 -36.226562 15.796875 -36.453125 15.796875 -36.703125 C 15.796875 -36.972656 15.65625 -37.195312 15.375 -37.375 C 15.09375 -37.550781 14.71875 -37.640625 14.25 -37.640625 C 13.976562 -37.640625 13.726562 -37.609375 13.5 -37.546875 C 13.28125 -37.484375 13.078125 -37.410156 12.890625 -37.328125 C 12.710938 -37.253906 12.546875 -37.1875 12.390625 -37.125 C 12.242188 -37.070312 12.101562 -37.046875 11.96875 -37.046875 C 11.8125 -37.046875 11.6875 -37.085938 11.59375 -37.171875 C 11.5 -37.265625 11.398438 -37.390625 11.296875 -37.546875 Z M 10.296875 -38.953125 "/></g></g></g><g fill="#1ca7ec" fill-opacity="1"><g transform="translate(68.212759, 43.253577)"><g><path d="M 9.375 0 L 3.5 0 L 3.5 -31.46875 L 9.375 -31.46875 Z M 9.375 0 "/></g></g></g><g fill="#1ca7ec" fill-opacity="1"><g transform="translate(82.946731, 43.253577)"><g/></g></g><g fill="#1ca7ec" fill-opacity="1"><g transform="translate(95.352066, 43.253577)"><g><path d="M 20.265625 -25.75 C 20.085938 -25.445312 19.898438 -25.222656 19.703125 -25.078125 C 19.515625 -24.941406 19.273438 -24.875 18.984375 -24.875 C 18.671875 -24.875 18.335938 -24.984375 17.984375 -25.203125 C 17.628906 -25.429688 17.203125 -25.679688 16.703125 -25.953125 C 16.210938 -26.234375 15.640625 -26.488281 14.984375 -26.71875 C 14.328125 -26.945312 13.546875 -27.0625 12.640625 -27.0625 C 11.828125 -27.0625 11.113281 -26.960938 10.5 -26.765625 C 9.894531 -26.566406 9.382812 -26.289062 8.96875 -25.9375 C 8.5625 -25.59375 8.253906 -25.175781 8.046875 -24.6875 C 7.847656 -24.207031 7.75 -23.675781 7.75 -23.09375 C 7.75 -22.351562 7.953125 -21.734375 8.359375 -21.234375 C 8.773438 -20.742188 9.320312 -20.320312 10 -19.96875 C 10.6875 -19.625 11.460938 -19.3125 12.328125 -19.03125 C 13.203125 -18.757812 14.097656 -18.46875 15.015625 -18.15625 C 15.929688 -17.851562 16.820312 -17.492188 17.6875 -17.078125 C 18.5625 -16.660156 19.335938 -16.132812 20.015625 -15.5 C 20.703125 -14.875 21.25 -14.101562 21.65625 -13.1875 C 22.070312 -12.269531 22.28125 -11.160156 22.28125 -9.859375 C 22.28125 -8.441406 22.035156 -7.109375 21.546875 -5.859375 C 21.066406 -4.617188 20.359375 -3.535156 19.421875 -2.609375 C 18.484375 -1.691406 17.335938 -0.96875 15.984375 -0.4375 C 14.640625 0.0820312 13.097656 0.34375 11.359375 0.34375 C 10.359375 0.34375 9.367188 0.242188 8.390625 0.046875 C 7.421875 -0.140625 6.488281 -0.414062 5.59375 -0.78125 C 4.707031 -1.144531 3.875 -1.578125 3.09375 -2.078125 C 2.3125 -2.585938 1.613281 -3.15625 1 -3.78125 L 2.71875 -6.59375 C 2.863281 -6.800781 3.050781 -6.972656 3.28125 -7.109375 C 3.519531 -7.242188 3.769531 -7.3125 4.03125 -7.3125 C 4.394531 -7.3125 4.785156 -7.160156 5.203125 -6.859375 C 5.617188 -6.566406 6.117188 -6.238281 6.703125 -5.875 C 7.285156 -5.507812 7.960938 -5.175781 8.734375 -4.875 C 9.515625 -4.582031 10.445312 -4.4375 11.53125 -4.4375 C 13.195312 -4.4375 14.488281 -4.832031 15.40625 -5.625 C 16.320312 -6.414062 16.78125 -7.550781 16.78125 -9.03125 C 16.78125 -9.851562 16.570312 -10.523438 16.15625 -11.046875 C 15.75 -11.578125 15.203125 -12.019531 14.515625 -12.375 C 13.835938 -12.726562 13.0625 -13.023438 12.1875 -13.265625 C 11.320312 -13.515625 10.4375 -13.785156 9.53125 -14.078125 C 8.632812 -14.367188 7.75 -14.71875 6.875 -15.125 C 6.007812 -15.53125 5.234375 -16.0625 4.546875 -16.71875 C 3.867188 -17.375 3.320312 -18.191406 2.90625 -19.171875 C 2.488281 -20.148438 2.28125 -21.351562 2.28125 -22.78125 C 2.28125 -23.9375 2.507812 -25.054688 2.96875 -26.140625 C 3.425781 -27.222656 4.085938 -28.1875 4.953125 -29.03125 C 5.828125 -29.875 6.898438 -30.550781 8.171875 -31.0625 C 9.453125 -31.570312 10.921875 -31.828125 12.578125 -31.828125 C 14.429688 -31.828125 16.140625 -31.535156 17.703125 -30.953125 C 19.273438 -30.367188 20.613281 -29.554688 21.71875 -28.515625 Z M 20.265625 -25.75 "/></g></g></g><g fill="#1ca7ec" fill-opacity="1"><g transform="translate(120.42337, 43.253577)"><g><path d="M 20.140625 -11.890625 L 16.296875 -22.359375 C 16.109375 -22.816406 15.910156 -23.363281 15.703125 -24 C 15.503906 -24.644531 15.304688 -25.335938 15.109375 -26.078125 C 14.921875 -25.335938 14.722656 -24.644531 14.515625 -24 C 14.316406 -23.351562 14.125 -22.789062 13.9375 -22.3125 L 10.125 -11.890625 Z M 30.46875 0 L 25.9375 0 C 25.4375 0 25.023438 -0.125 24.703125 -0.375 C 24.378906 -0.632812 24.140625 -0.953125 23.984375 -1.328125 L 21.640625 -7.75 L 8.59375 -7.75 L 6.25 -1.328125 C 6.132812 -0.992188 5.910156 -0.6875 5.578125 -0.40625 C 5.242188 -0.132812 4.828125 0 4.328125 0 L -0.234375 0 L 12.140625 -31.46875 L 18.109375 -31.46875 Z M 10.296875 -38.953125 C 10.765625 -39.304688 11.421875 -39.59375 12.265625 -39.8125 C 13.117188 -40.039062 14.015625 -40.15625 14.953125 -40.15625 C 16.453125 -40.15625 17.59375 -39.878906 18.375 -39.328125 C 19.164062 -38.773438 19.5625 -38.066406 19.5625 -37.203125 C 19.5625 -36.804688 19.484375 -36.457031 19.328125 -36.15625 C 19.179688 -35.851562 18.976562 -35.582031 18.71875 -35.34375 C 18.457031 -35.101562 18.148438 -34.898438 17.796875 -34.734375 C 17.441406 -34.566406 17.0625 -34.421875 16.65625 -34.296875 L 16.28125 -33.171875 L 13.71875 -33.171875 L 13.71875 -35.59375 C 14.46875 -35.6875 15 -35.832031 15.3125 -36.03125 C 15.632812 -36.226562 15.796875 -36.453125 15.796875 -36.703125 C 15.796875 -36.972656 15.65625 -37.195312 15.375 -37.375 C 15.09375 -37.550781 14.71875 -37.640625 14.25 -37.640625 C 13.976562 -37.640625 13.726562 -37.609375 13.5 -37.546875 C 13.28125 -37.484375 13.078125 -37.410156 12.890625 -37.328125 C 12.710938 -37.253906 12.546875 -37.1875 12.390625 -37.125 C 12.242188 -37.070312 12.101562 -37.046875 11.96875 -37.046875 C 11.8125 -37.046875 11.6875 -37.085938 11.59375 -37.171875 C 11.5 -37.265625 11.398438 -37.390625 11.296875 -37.546875 Z M 10.296875 -38.953125 "/></g></g></g><g fill="#1ca7ec" fill-opacity="1"><g transform="translate(152.480617, 43.253577)"><g><path d="M 30.03125 -31.46875 L 30.03125 0 L 27.03125 0 C 26.570312 0 26.1875 -0.0703125 25.875 -0.21875 C 25.5625 -0.375 25.257812 -0.632812 24.96875 -1 L 8.53125 -21.984375 C 8.613281 -21.023438 8.65625 -20.140625 8.65625 -19.328125 L 8.65625 0 L 3.5 0 L 3.5 -31.46875 L 6.578125 -31.46875 C 6.816406 -31.46875 7.023438 -31.457031 7.203125 -31.4375 C 7.390625 -31.414062 7.550781 -31.375 7.6875 -31.3125 C 7.832031 -31.25 7.96875 -31.15625 8.09375 -31.03125 C 8.226562 -30.90625 8.375 -30.738281 8.53125 -30.53125 L 25.03125 -9.46875 C 24.988281 -9.976562 24.953125 -10.476562 24.921875 -10.96875 C 24.890625 -11.457031 24.875 -11.914062 24.875 -12.34375 L 24.875 -31.46875 Z M 30.03125 -31.46875 "/></g></g></g><g fill="#1ca7ec" fill-opacity="1"><g transform="translate(187.845827, 43.253577)"><g/></g></g><g fill="#1ca7ec" fill-opacity="1"><g transform="translate(200.251162, 43.253577)"><g><path d="M 25.125 -7.421875 C 25.4375 -7.421875 25.71875 -7.296875 25.96875 -7.046875 L 28.28125 -4.546875 C 27 -2.960938 25.425781 -1.75 23.5625 -0.90625 C 21.695312 -0.0703125 19.457031 0.34375 16.84375 0.34375 C 14.507812 0.34375 12.410156 -0.0507812 10.546875 -0.84375 C 8.679688 -1.644531 7.085938 -2.753906 5.765625 -4.171875 C 4.441406 -5.597656 3.425781 -7.296875 2.71875 -9.265625 C 2.019531 -11.242188 1.671875 -13.398438 1.671875 -15.734375 C 1.671875 -18.097656 2.046875 -20.265625 2.796875 -22.234375 C 3.554688 -24.203125 4.617188 -25.894531 5.984375 -27.3125 C 7.359375 -28.738281 8.992188 -29.847656 10.890625 -30.640625 C 12.796875 -31.429688 14.90625 -31.828125 17.21875 -31.828125 C 19.507812 -31.828125 21.539062 -31.445312 23.3125 -30.6875 C 25.09375 -29.9375 26.609375 -28.953125 27.859375 -27.734375 L 25.90625 -25.015625 C 25.789062 -24.835938 25.640625 -24.679688 25.453125 -24.546875 C 25.273438 -24.421875 25.023438 -24.359375 24.703125 -24.359375 C 24.484375 -24.359375 24.257812 -24.414062 24.03125 -24.53125 C 23.800781 -24.65625 23.546875 -24.804688 23.265625 -24.984375 C 22.992188 -25.171875 22.675781 -25.375 22.3125 -25.59375 C 21.945312 -25.8125 21.523438 -26.007812 21.046875 -26.1875 C 20.566406 -26.375 20.007812 -26.53125 19.375 -26.65625 C 18.75 -26.78125 18.019531 -26.84375 17.1875 -26.84375 C 15.78125 -26.84375 14.492188 -26.585938 13.328125 -26.078125 C 12.160156 -25.578125 11.15625 -24.851562 10.3125 -23.90625 C 9.46875 -22.957031 8.8125 -21.796875 8.34375 -20.421875 C 7.882812 -19.054688 7.65625 -17.492188 7.65625 -15.734375 C 7.65625 -13.960938 7.90625 -12.390625 8.40625 -11.015625 C 8.90625 -9.640625 9.582031 -8.476562 10.4375 -7.53125 C 11.300781 -6.582031 12.3125 -5.859375 13.46875 -5.359375 C 14.632812 -4.859375 15.882812 -4.609375 17.21875 -4.609375 C 18.007812 -4.609375 18.726562 -4.648438 19.375 -4.734375 C 20.019531 -4.828125 20.613281 -4.96875 21.15625 -5.15625 C 21.707031 -5.34375 22.222656 -5.582031 22.703125 -5.875 C 23.191406 -6.175781 23.675781 -6.546875 24.15625 -6.984375 C 24.300781 -7.117188 24.453125 -7.222656 24.609375 -7.296875 C 24.773438 -7.378906 24.945312 -7.421875 25.125 -7.421875 Z M 25.125 -7.421875 "/></g></g></g><g fill="#1ca7ec" fill-opacity="1"><g transform="translate(230.197359, 43.253577)"><g><path d="M 33.515625 -15.734375 C 33.515625 -13.429688 33.132812 -11.296875 32.375 -9.328125 C 31.613281 -7.359375 30.535156 -5.65625 29.140625 -4.21875 C 27.753906 -2.78125 26.078125 -1.660156 24.109375 -0.859375 C 22.148438 -0.0546875 19.976562 0.34375 17.59375 0.34375 C 15.207031 0.34375 13.035156 -0.0546875 11.078125 -0.859375 C 9.117188 -1.660156 7.4375 -2.78125 6.03125 -4.21875 C 4.632812 -5.65625 3.550781 -7.359375 2.78125 -9.328125 C 2.007812 -11.296875 1.625 -13.429688 1.625 -15.734375 C 1.625 -18.046875 2.007812 -20.179688 2.78125 -22.140625 C 3.550781 -24.109375 4.632812 -25.8125 6.03125 -27.25 C 7.4375 -28.6875 9.117188 -29.804688 11.078125 -30.609375 C 13.035156 -31.421875 15.207031 -31.828125 17.59375 -31.828125 C 19.1875 -31.828125 20.6875 -31.640625 22.09375 -31.265625 C 23.5 -30.898438 24.789062 -30.378906 25.96875 -29.703125 C 27.144531 -29.023438 28.195312 -28.203125 29.125 -27.234375 C 30.0625 -26.273438 30.859375 -25.195312 31.515625 -24 C 32.171875 -22.8125 32.664062 -21.519531 33 -20.125 C 33.34375 -18.738281 33.515625 -17.273438 33.515625 -15.734375 Z M 27.53125 -15.734375 C 27.53125 -17.460938 27.296875 -19.007812 26.828125 -20.375 C 26.367188 -21.75 25.710938 -22.914062 24.859375 -23.875 C 24.003906 -24.832031 22.960938 -25.566406 21.734375 -26.078125 C 20.503906 -26.585938 19.125 -26.84375 17.59375 -26.84375 C 16.050781 -26.84375 14.664062 -26.585938 13.4375 -26.078125 C 12.207031 -25.566406 11.160156 -24.832031 10.296875 -23.875 C 9.441406 -22.914062 8.78125 -21.75 8.3125 -20.375 C 7.851562 -19.007812 7.625 -17.460938 7.625 -15.734375 C 7.625 -14.003906 7.851562 -12.453125 8.3125 -11.078125 C 8.78125 -9.710938 9.441406 -8.554688 10.296875 -7.609375 C 11.160156 -6.660156 12.207031 -5.929688 13.4375 -5.421875 C 14.664062 -4.910156 16.050781 -4.65625 17.59375 -4.65625 C 19.125 -4.65625 20.503906 -4.910156 21.734375 -5.421875 C 22.960938 -5.929688 24.003906 -6.660156 24.859375 -7.609375 C 25.710938 -8.554688 26.367188 -9.710938 26.828125 -11.078125 C 27.296875 -12.453125 27.53125 -14.003906 27.53125 -15.734375 Z M 25.40625 -33.71875 L 21.5 -33.71875 C 21.28125 -33.71875 21.015625 -33.753906 20.703125 -33.828125 C 20.390625 -33.910156 20.066406 -34.148438 19.734375 -34.546875 L 17.953125 -36.84375 C 17.804688 -37.050781 17.695312 -37.210938 17.625 -37.328125 C 17.550781 -37.210938 17.441406 -37.050781 17.296875 -36.84375 L 15.515625 -34.546875 C 15.179688 -34.148438 14.859375 -33.910156 14.546875 -33.828125 C 14.234375 -33.753906 13.96875 -33.71875 13.75 -33.71875 L 10.03125 -33.71875 L 15.28125 -39.703125 L 20.15625 -39.703125 Z M 25.40625 -33.71875 "/></g></g></g><g fill="#1ca7ec" fill-opacity="1"><g transform="translate(267.194793, 43.253577)"><g/></g></g><g fill="#1ca7ec" fill-opacity="1"><g transform="translate(278.272493, 43.253577)"><g><path d="M 25.484375 -26.65625 L 16 -26.65625 L 16 0 L 10.140625 0 L 10.140625 -26.65625 L 0.65625 -26.65625 L 0.65625 -31.46875 L 25.484375 -31.46875 Z M 25.484375 -26.65625 "/></g></g></g><g fill="#1ca7ec" fill-opacity="1"><g transform="translate(305.171845, 43.253577)"><g><path d="M 33.515625 -15.734375 C 33.515625 -13.429688 33.132812 -11.296875 32.375 -9.328125 C 31.613281 -7.359375 30.535156 -5.65625 29.140625 -4.21875 C 27.753906 -2.78125 26.078125 -1.660156 24.109375 -0.859375 C 22.148438 -0.0546875 19.976562 0.34375 17.59375 0.34375 C 15.207031 0.34375 13.035156 -0.0546875 11.078125 -0.859375 C 9.117188 -1.660156 7.4375 -2.78125 6.03125 -4.21875 C 4.632812 -5.65625 3.550781 -7.359375 2.78125 -9.328125 C 2.007812 -11.296875 1.625 -13.429688 1.625 -15.734375 C 1.625 -18.046875 2.007812 -20.179688 2.78125 -22.140625 C 3.550781 -24.109375 4.632812 -25.8125 6.03125 -27.25 C 7.4375 -28.6875 9.117188 -29.804688 11.078125 -30.609375 C 13.035156 -31.421875 15.207031 -31.828125 17.59375 -31.828125 C 19.1875 -31.828125 20.6875 -31.640625 22.09375 -31.265625 C 23.5 -30.898438 24.789062 -30.378906 25.96875 -29.703125 C 27.144531 -29.023438 28.195312 -28.203125 29.125 -27.234375 C 30.0625 -26.273438 30.859375 -25.195312 31.515625 -24 C 32.171875 -22.8125 32.664062 -21.519531 33 -20.125 C 33.34375 -18.738281 33.515625 -17.273438 33.515625 -15.734375 Z M 27.53125 -15.734375 C 27.53125 -17.460938 27.296875 -19.007812 26.828125 -20.375 C 26.367188 -21.75 25.710938 -22.914062 24.859375 -23.875 C 24.003906 -24.832031 22.960938 -25.566406 21.734375 -26.078125 C 20.503906 -26.585938 19.125 -26.84375 17.59375 -26.84375 C 16.050781 -26.84375 14.664062 -26.585938 13.4375 -26.078125 C 12.207031 -25.566406 11.160156 -24.832031 10.296875 -23.875 C 9.441406 -22.914062 8.78125 -21.75 8.3125 -20.375 C 7.851562 -19.007812 7.625 -17.460938 7.625 -15.734375 C 7.625 -14.003906 7.851562 -12.453125 8.3125 -11.078125 C 8.78125 -9.710938 9.441406 -8.554688 10.296875 -7.609375 C 11.160156 -6.660156 12.207031 -5.929688 13.4375 -5.421875 C 14.664062 -4.910156 16.050781 -4.65625 17.59375 -4.65625 C 19.125 -4.65625 20.503906 -4.910156 21.734375 -5.421875 C 22.960938 -5.929688 24.003906 -6.660156 24.859375 -7.609375 C 25.710938 -8.554688 26.367188 -9.710938 26.828125 -11.078125 C 27.296875 -12.453125 27.53125 -14.003906 27.53125 -15.734375 Z M 25.40625 -33.71875 L 21.5 -33.71875 C 21.28125 -33.71875 21.015625 -33.753906 20.703125 -33.828125 C 20.390625 -33.910156 20.066406 -34.148438 19.734375 -34.546875 L 17.953125 -36.84375 C 17.804688 -37.050781 17.695312 -37.210938 17.625 -37.328125 C 17.550781 -37.210938 17.441406 -37.050781 17.296875 -36.84375 L 15.515625 -34.546875 C 15.179688 -34.148438 14.859375 -33.910156 14.546875 -33.828125 C 14.234375 -33.753906 13.96875 -33.71875 13.75 -33.71875 L 10.03125 -33.71875 L 15.28125 -39.703125 L 20.15625 -39.703125 Z M 25.40625 -33.71875 "/></g></g></g></g></g><g transform="matrix(1, 0, 0, 1, 163, 17)"><g clip-path="url(#7562e4c811)"><g fill="#9c8658" fill-opacity="1"><g transform="translate(0.790302, 63.051663)"><g><path d="M 49.828125 -45.742188 L 49.828125 2.449219 L 37.527344 2.449219 L 13.984375 -26.21875 L 15.878906 -27.773438 L 18.328125 -27.773438 L 18.328125 2.449219 L 2.972656 2.449219 L 2.972656 -48.191406 L 15.339844 -48.191406 L 38.816406 -19.523438 L 36.921875 -17.96875 L 34.46875 -17.96875 L 34.46875 -48.191406 L 49.828125 -48.191406 Z M 44.925781 -45.742188 L 47.375 -45.742188 L 47.375 -43.292969 L 36.921875 -43.292969 L 36.921875 -45.742188 L 39.371094 -45.742188 L 39.371094 -11.109375 L 12.285156 -44.191406 L 14.179688 -45.742188 L 14.179688 -43.292969 L 5.421875 -43.292969 L 5.421875 -45.742188 L 7.875 -45.742188 L 7.875 0 L 5.421875 0 L 5.421875 -2.449219 L 15.878906 -2.449219 L 15.878906 0 L 13.429688 0 L 13.429688 -34.617188 L 40.578125 -1.554688 L 38.683594 0 L 38.683594 -2.449219 L 47.375 -2.449219 L 47.375 0 L 44.925781 0 Z M 44.925781 -45.742188 "/></g></g></g><g fill="#9c8658" fill-opacity="1"><g transform="translate(58.611786, 63.051663)"><g><path d="M 36.332031 -26.039062 L 48.453125 -26.039062 L 48.453125 -3.8125 L 47.480469 -3.074219 C 44.765625 -1.027344 41.640625 0.539062 38.097656 1.625 C 34.59375 2.699219 31.066406 3.234375 27.511719 3.234375 C 22.351562 3.234375 17.699219 2.125 13.546875 -0.09375 C 9.359375 -2.332031 6.070312 -5.441406 3.683594 -9.421875 C 1.292969 -13.40625 0.0976562 -17.886719 0.0976562 -22.871094 C 0.0976562 -27.855469 1.292969 -32.335938 3.683594 -36.320312 C 6.074219 -40.304688 9.386719 -43.417969 13.625 -45.65625 C 17.816406 -47.871094 22.511719 -48.976562 27.707031 -48.976562 C 32.039062 -48.976562 35.988281 -48.242188 39.554688 -46.765625 C 43.183594 -45.265625 46.230469 -43.085938 48.707031 -40.222656 L 50.257812 -38.429688 L 39.945312 -28.90625 L 38.28125 -30.660156 C 35.496094 -33.59375 32.144531 -35.058594 28.230469 -35.058594 C 25.722656 -35.058594 23.519531 -34.546875 21.617188 -33.523438 C 19.761719 -32.523438 18.320312 -31.117188 17.289062 -29.304688 C 16.242188 -27.460938 15.714844 -25.316406 15.714844 -22.871094 C 15.714844 -20.472656 16.242188 -18.347656 17.289062 -16.503906 C 18.328125 -14.679688 19.765625 -13.257812 21.609375 -12.242188 C 23.480469 -11.203125 25.644531 -10.683594 28.097656 -10.683594 C 30.738281 -10.683594 33.097656 -11.242188 35.175781 -12.355469 L 36.332031 -10.195312 L 33.882812 -10.195312 L 33.882812 -26.039062 Z M 36.332031 -21.140625 L 36.332031 -23.589844 L 38.785156 -23.589844 L 38.785156 -8.726562 L 37.488281 -8.035156 C 34.6875 -6.535156 31.558594 -5.78125 28.097656 -5.78125 C 24.800781 -5.78125 21.847656 -6.507812 19.234375 -7.953125 C 16.589844 -9.414062 14.519531 -11.457031 13.03125 -14.078125 C 11.554688 -16.675781 10.816406 -19.609375 10.816406 -22.871094 C 10.816406 -26.179688 11.554688 -29.132812 13.03125 -31.726562 C 14.527344 -34.359375 16.613281 -36.394531 19.292969 -37.835938 C 21.917969 -39.253906 24.898438 -39.960938 28.230469 -39.960938 C 33.550781 -39.960938 38.085938 -37.984375 41.835938 -34.035156 L 40.058594 -32.347656 L 38.394531 -34.148438 L 45.191406 -40.421875 L 46.855469 -38.621094 L 45 -37.015625 C 43.03125 -39.292969 40.59375 -41.035156 37.683594 -42.234375 C 34.714844 -43.464844 31.390625 -44.078125 27.707031 -44.078125 C 23.320312 -44.078125 19.390625 -43.15625 15.914062 -41.320312 C 12.484375 -39.507812 9.804688 -37 7.882812 -33.796875 C 5.960938 -30.589844 5 -26.949219 5 -22.871094 C 5 -18.792969 5.960938 -15.152344 7.882812 -11.945312 C 9.808594 -8.738281 12.464844 -6.230469 15.859375 -4.414062 C 19.289062 -2.582031 23.171875 -1.667969 27.511719 -1.667969 C 30.578125 -1.667969 33.625 -2.132812 36.660156 -3.0625 C 39.652344 -3.980469 42.273438 -5.289062 44.527344 -6.988281 L 46.003906 -5.03125 L 43.554688 -5.03125 L 43.554688 -23.589844 L 46.003906 -23.589844 L 46.003906 -21.140625 Z M 36.332031 -21.140625 "/></g></g></g><g fill="#9c8658" fill-opacity="1"><g transform="translate(114.015919, 63.051663)"><g><path d="M 35.546875 -7.351562 L 14.3125 -7.351562 L 14.3125 -9.800781 L 16.574219 -8.867188 L 11.898438 2.449219 L -4.363281 2.449219 L 18.210938 -48.191406 L 31.84375 -48.191406 L 54.488281 2.449219 L 37.960938 2.449219 L 33.285156 -8.867188 L 35.546875 -9.800781 Z M 37.1875 -12.253906 L 41.863281 -0.9375 L 39.601562 0 L 39.601562 -2.449219 L 50.710938 -2.449219 L 50.710938 0 L 48.472656 1 L 28.019531 -44.742188 L 30.253906 -45.742188 L 30.253906 -43.292969 L 19.800781 -43.292969 L 19.800781 -45.742188 L 22.039062 -44.746094 L 1.648438 0.996094 L -0.589844 0 L -0.589844 -2.449219 L 10.257812 -2.449219 L 10.257812 0 L 7.996094 -0.9375 L 12.671875 -12.253906 Z M 29.953125 -16.902344 L 22.699219 -34.414062 L 24.960938 -35.351562 L 27.226562 -34.414062 L 19.972656 -16.902344 L 17.707031 -17.839844 L 17.707031 -20.289062 L 32.214844 -20.289062 L 32.214844 -17.839844 Z M 35.882812 -15.390625 L 14.042969 -15.390625 L 24.960938 -41.757812 L 34.480469 -18.777344 Z M 11.175781 -61.328125 L 23.214844 -61.328125 L 36.632812 -47.015625 L 22.144531 -47.015625 L 4.15625 -61.328125 Z M 11.175781 -56.425781 L 11.175781 -58.878906 L 12.699219 -60.796875 L 24.527344 -51.386719 L 23.003906 -49.46875 L 23.003906 -51.917969 L 30.972656 -51.917969 L 30.972656 -49.46875 L 29.1875 -47.792969 L 20.363281 -57.203125 L 22.152344 -58.878906 L 22.152344 -56.425781 Z M 11.175781 -56.425781 "/></g></g></g><g fill="#9c8658" fill-opacity="1"><g transform="translate(166.283487, 63.051663)"><g><path d="M 29.832031 -16.207031 L 29.832031 2.449219 L 14.34375 2.449219 L 14.34375 -16.335938 L 16.792969 -16.335938 L 14.695312 -15.074219 L -5.25 -48.191406 L 11.710938 -48.191406 L 24.644531 -26.683594 L 22.542969 -25.417969 L 20.445312 -26.683594 L 33.378906 -48.191406 L 49.488281 -48.191406 L 29.480469 -14.941406 L 27.378906 -16.207031 Z M 24.929688 -16.886719 L 43.054688 -47.007812 L 45.15625 -45.742188 L 45.15625 -43.292969 L 34.765625 -43.292969 L 34.765625 -45.742188 L 36.863281 -44.480469 L 22.542969 -20.664062 L 8.222656 -44.480469 L 10.324219 -45.742188 L 10.324219 -43.292969 L -0.914062 -43.292969 L -0.914062 -45.742188 L 1.183594 -47.007812 L 19.246094 -17.019531 L 19.246094 0 L 16.792969 0 L 16.792969 -2.449219 L 27.378906 -2.449219 L 27.378906 0 L 24.929688 0 Z M 24.929688 -16.886719 "/></g></g></g><g fill="#9c8658" fill-opacity="1"><g transform="translate(215.480939, 63.051663)"><g/></g></g><g fill="#9c8658" fill-opacity="1"><g transform="translate(239.00231, 63.051663)"><g><path d="M 44.597656 0.00390625 L 44.535156 -27.441406 L 46.984375 -27.445312 L 49.089844 -26.191406 L 34.914062 -2.386719 L 27.375 -2.386719 L 13.261719 -25.582031 L 15.355469 -26.859375 L 17.808594 -26.859375 L 17.808594 2.449219 L 2.972656 2.449219 L 2.972656 -48.191406 L 15.566406 -48.191406 L 33.398438 -18.582031 L 31.300781 -17.316406 L 29.191406 -18.566406 L 46.765625 -48.191406 L 59.296875 -48.191406 L 59.441406 2.449219 L 44.605469 2.449219 Z M 49.5 -0.00390625 L 47.050781 0 L 47.050781 -2.449219 L 56.980469 -2.449219 L 56.980469 0 L 54.53125 0.0078125 L 54.402344 -45.734375 L 56.851562 -45.742188 L 56.851562 -43.292969 L 48.160156 -43.292969 L 48.160156 -45.742188 L 50.269531 -44.492188 L 31.316406 -12.539062 L 12.082031 -44.476562 L 14.179688 -45.742188 L 14.179688 -43.292969 L 5.421875 -43.292969 L 5.421875 -45.742188 L 7.875 -45.742188 L 7.875 0 L 5.421875 0 L 5.421875 -2.449219 L 15.355469 -2.449219 L 15.355469 0 L 12.90625 0 L 12.90625 -35.601562 L 30.847656 -6.109375 L 28.753906 -4.835938 L 28.753906 -7.285156 L 33.523438 -7.285156 L 33.523438 -4.835938 L 31.417969 -6.089844 L 49.414062 -36.316406 Z M 49.5 -0.00390625 "/></g></g></g><g fill="#9c8658" fill-opacity="1"><g transform="translate(306.427825, 63.051663)"><g><path d="M 46.484375 -41.984375 C 49.152344 -39.707031 51.25 -36.910156 52.773438 -33.597656 C 54.292969 -30.289062 55.054688 -26.714844 55.054688 -22.871094 C 55.054688 -17.929688 53.847656 -13.464844 51.433594 -9.480469 C 49.023438 -5.503906 45.730469 -2.390625 41.550781 -0.132812 C 37.394531 2.113281 32.738281 3.234375 27.578125 3.234375 C 22.417969 3.234375 17.75 2.113281 13.574219 -0.128906 C 9.367188 -2.386719 6.070312 -5.507812 3.683594 -9.488281 C 1.292969 -13.472656 0.0976562 -17.933594 0.0976562 -22.871094 C 0.0976562 -27.816406 1.304688 -32.277344 3.71875 -36.261719 C 6.132812 -40.246094 9.476562 -43.363281 13.753906 -45.621094 C 17.988281 -47.859375 22.75 -48.976562 28.035156 -48.976562 C 30.050781 -48.976562 32.542969 -48.796875 35.515625 -48.4375 C 37.679688 -48.1875 39.171875 -48.0625 39.992188 -48.0625 C 41.125 -48.0625 41.933594 -48.257812 42.425781 -48.644531 C 42.742188 -48.894531 42.898438 -49.320312 42.898438 -49.925781 C 42.898438 -50.765625 42.609375 -51.609375 42.027344 -52.453125 L 40.234375 -55.050781 L 50.964844 -59.015625 L 52.054688 -57.488281 C 53.75 -55.101562 54.597656 -52.449219 54.597656 -49.53125 C 54.597656 -46.574219 53.792969 -44.066406 52.179688 -42.007812 C 50.589844 -39.976562 48.382812 -38.5625 45.5625 -37.765625 L 44.894531 -40.121094 Z M 43.300781 -38.261719 L 39.820312 -41.234375 L 44.226562 -42.480469 C 46.023438 -42.988281 47.386719 -43.839844 48.324219 -45.03125 C 49.238281 -46.199219 49.695312 -47.699219 49.695312 -49.53125 C 49.695312 -51.40625 49.148438 -53.113281 48.058594 -54.648438 L 50.054688 -56.066406 L 50.90625 -53.769531 L 44.894531 -51.546875 L 44.042969 -53.847656 L 46.0625 -55.238281 C 47.222656 -53.554688 47.800781 -51.785156 47.800781 -49.925781 C 47.800781 -47.738281 47.023438 -46.03125 45.464844 -44.800781 C 44.082031 -43.707031 42.257812 -43.160156 39.992188 -43.160156 C 38.984375 -43.160156 37.296875 -43.296875 34.925781 -43.570312 C 32.148438 -43.90625 29.851562 -44.078125 28.035156 -44.078125 C 23.558594 -44.078125 19.5625 -43.148438 16.042969 -41.289062 C 12.566406 -39.453125 9.855469 -36.929688 7.910156 -33.722656 C 5.96875 -30.519531 5 -26.902344 5 -22.871094 C 5 -18.835938 5.960938 -15.214844 7.882812 -12.011719 C 9.808594 -8.800781 12.480469 -6.28125 15.894531 -4.445312 C 19.34375 -2.59375 23.238281 -1.667969 27.578125 -1.667969 C 31.910156 -1.667969 35.792969 -2.59375 39.21875 -4.441406 C 42.617188 -6.28125 45.292969 -8.804688 47.242188 -12.019531 C 49.183594 -15.222656 50.152344 -18.839844 50.152344 -22.871094 C 50.152344 -26 49.542969 -28.890625 48.320312 -31.550781 C 47.097656 -34.210938 45.425781 -36.445312 43.300781 -38.261719 Z M 27.578125 -10.683594 C 29.84375 -10.683594 31.878906 -11.199219 33.679688 -12.226562 C 35.464844 -13.242188 36.867188 -14.660156 37.886719 -16.488281 C 38.917969 -18.335938 39.4375 -20.464844 39.4375 -22.871094 C 39.4375 -25.277344 38.917969 -27.40625 37.886719 -29.257812 C 36.867188 -31.082031 35.464844 -32.5 33.679688 -33.519531 C 31.878906 -34.542969 29.84375 -35.058594 27.578125 -35.058594 C 25.308594 -35.058594 23.273438 -34.542969 21.472656 -33.519531 C 19.6875 -32.5 18.285156 -31.082031 17.265625 -29.257812 C 16.234375 -27.40625 15.714844 -25.277344 15.714844 -22.871094 C 15.714844 -20.464844 16.234375 -18.335938 17.265625 -16.488281 C 18.285156 -14.660156 19.6875 -13.242188 21.472656 -12.226562 C 23.273438 -11.199219 25.308594 -10.683594 27.578125 -10.683594 Z M 27.578125 -5.78125 C 24.441406 -5.78125 21.597656 -6.511719 19.042969 -7.96875 C 16.46875 -9.433594 14.453125 -11.476562 12.988281 -14.09375 C 11.539062 -16.6875 10.816406 -19.613281 10.816406 -22.871094 C 10.816406 -26.128906 11.539062 -29.054688 12.988281 -31.648438 C 14.453125 -34.265625 16.46875 -36.308594 19.042969 -37.777344 C 21.597656 -39.230469 24.441406 -39.960938 27.578125 -39.960938 C 30.710938 -39.960938 33.554688 -39.230469 36.109375 -37.777344 C 38.683594 -36.308594 40.699219 -34.265625 42.164062 -31.648438 C 43.613281 -29.054688 44.339844 -26.128906 44.339844 -22.871094 C 44.339844 -19.613281 43.613281 -16.6875 42.164062 -14.09375 C 40.699219 -11.476562 38.683594 -9.433594 36.109375 -7.96875 C 33.554688 -6.511719 30.710938 -5.78125 27.578125 -5.78125 Z M 30.453125 -61.328125 L 48.445312 -61.328125 L 30.457031 -47.015625 L 15.972656 -47.015625 L 29.390625 -61.328125 Z M 30.453125 -56.425781 L 30.453125 -58.878906 L 32.238281 -57.203125 L 23.417969 -47.792969 L 21.628906 -49.46875 L 21.628906 -51.917969 L 29.601562 -51.917969 L 29.601562 -49.46875 L 28.078125 -51.386719 L 39.902344 -60.796875 L 41.429688 -58.878906 L 41.429688 -56.425781 Z M 30.453125 -56.425781 "/></g></g></g><g fill="#9c8658" fill-opacity="1"><g transform="translate(366.601319, 63.051663)"><g><path d="M 2.972656 -48.191406 L 18.460938 -48.191406 L 18.460938 2.449219 L 2.972656 2.449219 Z M 7.875 -43.292969 L 7.875 -2.449219 L 13.558594 -2.449219 L 13.558594 -43.292969 Z M 7.875 -43.292969 "/></g></g></g><g fill="#fade3f" fill-opacity="1"><g transform="translate(0.790302, 63.051663)"><g><path d="M 47.375 -45.734375 L 47.375 0 L 38.6875 0 L 15.875 -27.765625 L 15.875 0 L 5.421875 0 L 5.421875 -45.734375 L 14.171875 -45.734375 L 36.921875 -17.96875 L 36.921875 -45.734375 Z M 47.375 -45.734375 "/></g></g></g><g fill="#fade3f" fill-opacity="1"><g transform="translate(58.611786, 63.051663)"><g><path d="M 36.328125 -23.59375 L 46 -23.59375 L 46 -5.03125 C 43.519531 -3.15625 40.644531 -1.71875 37.375 -0.71875 C 34.101562 0.28125 30.816406 0.78125 27.515625 0.78125 C 22.765625 0.78125 18.492188 -0.226562 14.703125 -2.25 C 10.910156 -4.28125 7.9375 -7.09375 5.78125 -10.6875 C 3.625 -14.28125 2.546875 -18.34375 2.546875 -22.875 C 2.546875 -27.40625 3.625 -31.46875 5.78125 -35.0625 C 7.9375 -38.65625 10.929688 -41.460938 14.765625 -43.484375 C 18.597656 -45.515625 22.910156 -46.53125 27.703125 -46.53125 C 31.710938 -46.53125 35.347656 -45.851562 38.609375 -44.5 C 41.878906 -43.144531 44.625 -41.1875 46.84375 -38.625 L 40.0625 -32.34375 C 36.789062 -35.78125 32.847656 -37.5 28.234375 -37.5 C 25.304688 -37.5 22.710938 -36.890625 20.453125 -35.671875 C 18.191406 -34.453125 16.425781 -32.734375 15.15625 -30.515625 C 13.894531 -28.296875 13.265625 -25.75 13.265625 -22.875 C 13.265625 -20.039062 13.894531 -17.507812 15.15625 -15.28125 C 16.425781 -13.0625 18.179688 -11.332031 20.421875 -10.09375 C 22.660156 -8.851562 25.21875 -8.234375 28.09375 -8.234375 C 31.144531 -8.234375 33.890625 -8.882812 36.328125 -10.1875 Z M 36.328125 -23.59375 "/></g></g></g><g fill="#fade3f" fill-opacity="1"><g transform="translate(114.015919, 63.051663)"><g><path d="M 35.546875 -9.796875 L 14.3125 -9.796875 L 10.265625 0 L -0.59375 0 L 19.796875 -45.734375 L 30.25 -45.734375 L 50.703125 0 L 39.59375 0 Z M 32.21875 -17.84375 L 24.96875 -35.34375 L 17.703125 -17.84375 Z M 11.171875 -58.875 L 22.140625 -58.875 L 30.96875 -49.46875 L 23 -49.46875 Z M 11.171875 -58.875 "/></g></g></g><g fill="#fade3f" fill-opacity="1"><g transform="translate(166.283487, 63.051663)"><g><path d="M 27.375 -16.203125 L 27.375 0 L 16.796875 0 L 16.796875 -16.34375 L -0.921875 -45.734375 L 10.328125 -45.734375 L 22.546875 -25.421875 L 34.765625 -45.734375 L 45.15625 -45.734375 Z M 27.375 -16.203125 "/></g></g></g><g fill="#fade3f" fill-opacity="1"><g transform="translate(215.480939, 63.051663)"><g/></g></g><g fill="#fade3f" fill-opacity="1"><g transform="translate(239.00231, 63.051663)"><g><path d="M 47.046875 0 L 46.984375 -27.4375 L 33.515625 -4.828125 L 28.75 -4.828125 L 15.359375 -26.859375 L 15.359375 0 L 5.421875 0 L 5.421875 -45.734375 L 14.171875 -45.734375 L 31.296875 -17.3125 L 48.15625 -45.734375 L 56.84375 -45.734375 L 56.984375 0 Z M 47.046875 0 "/></g></g></g><g fill="#fade3f" fill-opacity="1"><g transform="translate(306.427825, 63.051663)"><g><path d="M 44.890625 -40.125 C 47.285156 -38.070312 49.171875 -35.550781 50.546875 -32.5625 C 51.921875 -29.582031 52.609375 -26.351562 52.609375 -22.875 C 52.609375 -18.382812 51.515625 -14.34375 49.328125 -10.75 C 47.148438 -7.15625 44.164062 -4.332031 40.375 -2.28125 C 36.59375 -0.238281 32.328125 0.78125 27.578125 0.78125 C 22.828125 0.78125 18.546875 -0.238281 14.734375 -2.28125 C 10.921875 -4.332031 7.9375 -7.15625 5.78125 -10.75 C 3.625 -14.34375 2.546875 -18.382812 2.546875 -22.875 C 2.546875 -27.351562 3.632812 -31.390625 5.8125 -34.984375 C 7.988281 -38.578125 11.015625 -41.398438 14.890625 -43.453125 C 18.773438 -45.503906 23.15625 -46.53125 28.03125 -46.53125 C 29.945312 -46.53125 32.34375 -46.351562 35.21875 -46 C 37.488281 -45.738281 39.078125 -45.609375 39.984375 -45.609375 C 41.679688 -45.609375 43 -45.976562 43.9375 -46.71875 C 44.875 -47.457031 45.34375 -48.523438 45.34375 -49.921875 C 45.34375 -51.273438 44.910156 -52.582031 44.046875 -53.84375 L 50.046875 -56.0625 C 51.441406 -54.101562 52.140625 -51.925781 52.140625 -49.53125 C 52.140625 -47.132812 51.507812 -45.128906 50.25 -43.515625 C 48.988281 -41.898438 47.203125 -40.769531 44.890625 -40.125 Z M 27.578125 -8.234375 C 30.273438 -8.234375 32.710938 -8.851562 34.890625 -10.09375 C 37.066406 -11.332031 38.773438 -13.0625 40.015625 -15.28125 C 41.265625 -17.507812 41.890625 -20.039062 41.890625 -22.875 C 41.890625 -25.707031 41.265625 -28.234375 40.015625 -30.453125 C 38.773438 -32.671875 37.066406 -34.398438 34.890625 -35.640625 C 32.710938 -36.878906 30.273438 -37.5 27.578125 -37.5 C 24.878906 -37.5 22.4375 -36.878906 20.25 -35.640625 C 18.070312 -34.398438 16.363281 -32.671875 15.125 -30.453125 C 13.882812 -28.234375 13.265625 -25.707031 13.265625 -22.875 C 13.265625 -20.039062 13.882812 -17.507812 15.125 -15.28125 C 16.363281 -13.0625 18.070312 -11.332031 20.25 -10.09375 C 22.4375 -8.851562 24.878906 -8.234375 27.578125 -8.234375 Z M 30.4375 -58.875 L 41.421875 -58.875 L 29.59375 -49.46875 L 21.625 -49.46875 Z M 30.4375 -58.875 "/></g></g></g><g fill="#fade3f" fill-opacity="1"><g transform="translate(366.601319, 63.051663)"><g><path d="M 5.421875 -45.734375 L 16.015625 -45.734375 L 16.015625 0 L 5.421875 0 Z M 5.421875 -45.734375 "/></g></g></g></g></g></svg>